# xmcd
#
# Track frame offsets:
#	150
#	24430
#	69663
#	91083
#	122050
#	145098
#	167198
#	188908
#	218330
#	232160
#	257523
#
# Disc length: 3773 seconds
#
# Revision: 1
# Processed by: cddbd v1.4PL0 Copyright (c) Steve Scherf et al.
# Submitted via: MusicWizard 6.0.0
#
DISCID=920ebb0b
DTITLE=Cheatham Jeannie and Jimmy - Blues And The Boogie Masters
DYEAR=1993
DGENRE=Blues
TTITLE0=What Do We Do for Fun
TTITLE1=Little Bitty Bluebird Blues
TTITLE2=Blues and the Boogie Masters
TTITLE3=Line in the Sand
TTITLE4=Up in Rickey's Room
TTITLE5=Please Send Me Someone to Love
TTITLE6=Lead Dog Blues
TTITLE7=Don't Let Me Wake Up
TTITLE8=The Lonesome Road
TTITLE9=Too Many Goodbyes
TTITLE10=Leave That Woman Blues
EXTD=Jeannie Cheatham p, voc - Jimmy Cheatham btb - John "ironman" Harris dr - Dinky Morris bars, ss;
EXTD=Charles M. Owens as, Bars - Richard "Rough House" Reid b - Nolan "Cat Daddy" Smith tp - Rickey 
EXTD=Woodard ts, ss, cl - Snooky Young tp;
EXTT0=
EXTT1=
EXTT2=
EXTT3=
EXTT4=
EXTT5=
EXTT6=
EXTT7=
EXTT8=
EXTT9=
EXTT10=
PLAYORDER=
